<svg xmlns="http://www.w3.org/2000/svg" viewBox="0 0 128 128" role="img" aria-label="StreetFighter">
  <rect width="128" height="128" rx="18" fill="#151923"/>
  <path d="M18 83c12-30 29-45 52-45 16 0 30 7 42 21l-12 11c-8-9-18-14-29-14-15 0-28 10-38 31z" fill="#f05a1a"/>
  <path d="M38 89h51c7 0 13-6 13-13 0-4-2-8-5-11l-9-9c-3-3-7-4-11-4H60c-8 0-15 5-18 12z" fill="#ffc247"/>
  <path d="M42 76h38M51 64h22M65 52h12" stroke="#151923" stroke-width="8" stroke-linecap="round"/>
  <text x="64" y="111" text-anchor="middle" font-family="Arial, sans-serif" font-size="28" font-weight="900" fill="#ffffff">SF</text>
</svg>
